<?xml version="1.0" encoding="UTF-8" standalone="no"?>
<svg
   xmlns:dc="http://purl.org/dc/elements/1.1/"
   xmlns:cc="http://creativecommons.org/ns#"
   xmlns:rdf="http://www.w3.org/1999/02/22-rdf-syntax-ns#"
   xmlns:svg="http://www.w3.org/2000/svg"
   xmlns="http://www.w3.org/2000/svg"
   xmlns:sodipodi="http://sodipodi.sourceforge.net/DTD/sodipodi-0.dtd"
   xmlns:inkscape="http://www.inkscape.org/namespaces/inkscape"
   version="1.0"
   width="3000.000000pt"
   height="3000.000000pt"
   viewBox="0 0 3000.000000 3000.000000"
   preserveAspectRatio="xMidYMid meet"
   id="svg2"
   inkscape:version="0.91 r13725"
   sodipodi:docname="logo_Fabi.svg">
  <defs
     id="defs34" />
  <sodipodi:namedview
     pagecolor="#ffffff"
     bordercolor="#666666"
     borderopacity="1"
     objecttolerance="10"
     gridtolerance="10"
     guidetolerance="10"
     inkscape:pageopacity="0"
     inkscape:pageshadow="2"
     inkscape:window-width="2560"
     inkscape:window-height="1387"
     id="namedview32"
     showgrid="false"
     inkscape:zoom="0.50346667"
     inkscape:cx="2039.7642"
     inkscape:cy="2213.1247"
     inkscape:window-x="1912"
     inkscape:window-y="-8"
     inkscape:window-maximized="1"
     inkscape:current-layer="g6" />
  <metadata
     id="metadata4">
Created by potrace 1.15, written by Peter Selinger 2001-2017
<rdf:RDF>
  <cc:Work
     rdf:about="">
    <dc:format>image/svg+xml</dc:format>
    <dc:type
       rdf:resource="http://purl.org/dc/dcmitype/StillImage" />
    <dc:title></dc:title>
  </cc:Work>
</rdf:RDF>
</metadata>
  <g
     transform="translate(0.000000,3000.000000) scale(0.100000,-0.100000)"
     id="g6"
     stroke="none"
     fill="#000000"
     inkscape:export-xdpi="89.986061"
     inkscape:export-ydpi="89.986061">
    <path
       d="M11440 23405 c-9 -11 -9 -21 3 -45 9 -16 11 -30 6 -30 -5 0 -8 -29 -7 -65 1 -36 -1 -67 -4 -70 -3 -3 -2 -21 2 -40 4 -19 5 -49 1 -67 -4 -18 -4 -51 0 -73 4 -22 3 -47 -1 -55 -5 -9 -5 -22 0 -30 5 -8 5 -34 1 -56 -5 -23 -4 -49 1 -57 4 -9 4 -26 -2 -41 -8 -21 -6 -29 12 -46 18 -17 19 -20 5 -20 -11 0 -17 -8 -17 -24 0 -13 -3 -32 -6 -41 -5 -11 0 -18 15 -22 18 -5 19 -7 7 -17 -15 -11 -25 -113 -13 -132 3 -6 2 -26 -2 -45 -4 -18 -4 -47 0 -62 4 -15 4 -40 -1 -56 -4 -15 -4 -35 1 -44 5 -8 5 -18 1 -21 -5 -3 -6 -28 -2 -57 4 -29 4 -70 0 -91 -11 -57 17 -85 154 -151 63 -31 117 -61 121 -66 7 -13 134 -74 155 -75 9 -1 36 -17 60 -36 l44 -35 3001 -3 c1650 -1 3014 0 3032 3 18 3 46 19 62 36 17 16 39 32 48 34 10 2 32 10 48 19 17 9 35 16 42 16 14 0 137 71 141 82 2 5 9 8 15 8 18 0 151 71 170 91 11 12 17 34 17 69 0 47 -1 50 -23 45 -12 -3 -34 -2 -47 4 -22 9 -19 10 23 10 45 1 47 2 47 31 0 22 -4 29 -17 28 -10 -1 -36 0 -58 1 -29 1 -36 4 -25 11 8 5 33 6 56 3 32 -4 42 -2 47 11 5 12 0 20 -16 26 l-22 9 22 0 c20 1 22 5 17 34 -3 17 -7 37 -9 44 -2 7 0 15 6 18 5 4 7 27 3 56 -4 30 -2 54 4 62 7 8 7 18 2 27 -12 19 -13 107 -1 114 5 4 5 18 -2 36 -8 22 -16 28 -29 24 -10 -3 -18 -1 -18 5 0 5 10 11 22 13 23 3 30 30 21 81 -5 22 -11 27 -36 27 -37 0 -30 10 9 13 23 2 28 7 26 22 -2 11 -3 27 -2 35 1 8 1 74 1 147 0 74 4 135 9 138 7 4 6 13 0 25 -11 21 -12 32 -8 145 l3 80 -3551 3 c-3108 2 -3553 0 -3564 -13z"
       id="path8"
       inkscape:export-xdpi="89.986061"
       inkscape:export-ydpi="89.986061" />
    <path
       d="M13205 21128 c-15 -22 -14 -24 6 -40 13 -11 16 -18 8 -18 -18 0 -17 -109 1 -120 8 -5 8 -9 2 -11 -6 -2 -12 -22 -14 -44 l-3 -40 70 -8 c39 -4 82 -8 98 -10 15 -1 27 -5 27 -8 0 -13 -33 -20 -44 -9 -5 5 -41 10 -78 10 -64 0 -68 -1 -68 -22 0 -13 -3 -33 -6 -45 -5 -19 -2 -23 15 -23 11 0 21 -4 21 -10 0 -5 -7 -10 -15 -10 -11 0 -15 -11 -15 -40 0 -55 -1 -55 52 -56 26 -1 61 -7 78 -14 16 -7 36 -10 45 -6 8 3 15 1 15 -3 0 -17 -30 -20 -57 -6 -15 8 -52 15 -80 15 l-53 0 0 -34 c0 -19 -3 -41 -6 -50 -5 -13 2 -16 32 -18 36 -1 37 -1 7 -5 -42 -6 -62 -29 -32 -38 13 -4 17 -10 11 -14 -6 -4 -12 -51 -13 -116 l-2 -110 34 -6 34 -6 -32 -2 c-29 -1 -52 -16 -41 -27 3 -2 40 -6 84 -8 132 -7 122 -5 101 -17 -11 -6 -23 -7 -30 -2 -7 5 -42 10 -79 11 l-68 2 0 -38 c0 -21 -5 -43 -11 -49 -7 -7 -2 -14 18 -22 49 -20 80 -41 61 -41 -9 0 -20 5 -23 10 -3 6 -15 10 -26 10 -14 0 -19 -7 -19 -29 0 -17 -5 -33 -10 -36 -19 -11 1 -25 35 -25 43 0 53 -14 13 -17 -17 -1 -32 -4 -34 -5 -7 -8 -9 -188 -2 -188 4 0 3 -12 -2 -26 -13 -34 -13 -34 9 -34 28 0 36 -18 9 -22 -36 -5 -34 -28 4 -29 30 -2 30 -2 6 -6 -23 -4 -28 -9 -28 -33 0 -16 -5 -32 -10 -35 -15 -9 8 -35 31 -35 10 0 21 -4 24 -10 4 -6 -5 -10 -19 -10 -23 0 -26 -4 -26 -33 0 -18 -5 -38 -12 -45 -9 -9 -3 -12 29 -12 23 0 44 -4 47 -8 2 -4 -11 -6 -30 -4 l-34 4 -1 -43 c-3 -123 0 -164 10 -167 7 -2 5 -9 -4 -19 -24 -24 -17 -33 28 -35 l42 -1 -37 -4 c-25 -3 -38 -9 -38 -19 0 -8 0 -17 0 -21 -1 -5 16 -11 37 -14 l38 -6 -36 -2 c-36 -1 -37 -3 -41 -42 -2 -22 0 -43 4 -45 4 -3 44 -6 89 -8 45 -2 86 -9 92 -15 16 -16 -18 -15 -43 1 -16 10 -24 10 -41 0 -15 -10 -24 -11 -32 -3 -6 6 -24 11 -39 11 -26 0 -28 -3 -28 -39 0 -22 -5 -43 -10 -46 -18 -11 0 -25 33 -26 30 -2 31 -2 5 -6 -26 -4 -28 -8 -28 -47 0 -23 -5 -47 -11 -53 -9 -9 -3 -17 22 -33 23 -14 27 -19 12 -15 -22 6 -23 4 -23 -47 0 -30 -5 -59 -12 -66 -9 -9 -4 -12 24 -12 20 0 40 -4 43 -10 4 -6 -6 -10 -24 -10 -31 0 -49 -14 -32 -25 7 -3 7 -15 1 -30 -8 -21 -5 -27 18 -40 20 -12 21 -14 6 -10 -14 4 -24 0 -27 -9 -9 -23 11 -30 78 -29 55 0 57 0 20 -7 -22 -5 -52 -6 -67 -3 l-27 5 -3 -102 c-3 -98 -2 -103 20 -111 27 -10 29 -19 3 -12 -17 4 -20 -2 -23 -67 -2 -54 0 -74 10 -78 8 -3 10 -7 4 -11 -6 -3 -12 -15 -14 -25 -2 -14 4 -22 22 -27 24 -7 24 -7 3 -8 -13 -1 -24 -8 -24 -16 -1 -8 -2 -21 -3 -27 -1 -7 6 -13 14 -14 30 -2 34 -6 12 -12 -33 -10 -28 -27 8 -28 43 0 50 -14 8 -14 -30 0 -36 -4 -40 -25 -6 -30 -2 -35 28 -35 13 0 25 -3 27 -8 3 -4 -9 -7 -26 -7 l-32 0 0 -56 c0 -51 2 -57 26 -68 16 -7 52 -9 95 -5 109 9 159 10 165 1 3 -4 50 -14 105 -23 54 -8 115 -19 134 -24 23 -6 36 -6 38 0 5 14 28 12 41 -4 10 -11 61 -22 186 -40 17 -2 55 -9 86 -15 30 -6 84 -15 120 -20 35 -5 102 -16 149 -26 47 -9 104 -15 127 -12 27 3 41 1 40 -7 -3 -15 41 -20 59 -5 12 10 13 9 9 -3 -8 -20 25 -28 123 -34 40 -2 78 -7 84 -10 16 -10 128 -33 161 -34 20 0 26 4 20 13 -4 7 3 5 17 -4 25 -16 68 -27 125 -33 17 -1 47 -8 69 -15 31 -11 46 -11 76 -1 21 7 44 10 51 7 8 -3 5 -6 -8 -6 -49 -2 -19 -20 50 -30 39 -6 92 -16 117 -21 25 -5 115 -21 200 -35 85 -14 202 -34 260 -45 58 -11 124 -19 147 -18 23 1 47 -3 55 -9 20 -16 68 -25 68 -13 0 6 12 4 30 -5 16 -8 40 -15 53 -15 13 0 37 -4 53 -10 64 -22 380 -38 397 -21 6 6 16 11 22 11 5 0 3 -5 -5 -10 -9 -6 -10 -10 -3 -10 7 0 21 9 31 20 15 16 18 33 16 86 -2 37 -6 69 -9 72 -2 3 0 11 7 19 15 19 1 31 -42 36 l-35 4 36 1 c53 3 67 51 16 53 -20 1 -20 2 3 8 20 6 24 13 22 37 -2 16 -5 30 -6 32 -2 1 -23 -2 -47 -7 -29 -7 -47 -6 -56 0 -6 6 -22 8 -35 4 -17 -5 -19 -4 -9 3 8 6 37 8 65 5 42 -4 55 -1 72 15 18 17 21 29 17 69 -3 26 -7 49 -8 51 -1 1 -22 -2 -46 -7 -25 -6 -59 -6 -79 -1 -39 9 -28 12 46 11 56 0 100 28 90 56 -3 8 -6 23 -6 34 0 15 -7 19 -33 19 -18 0 -38 -5 -45 -12 -9 -9 -15 -9 -24 0 -7 7 -23 12 -37 12 -19 0 -22 3 -12 9 9 6 24 5 38 -2 18 -8 29 -8 44 1 10 7 30 12 43 12 32 0 37 9 29 53 -5 34 -9 37 -37 37 -18 0 -37 -5 -43 -11 -8 -8 -17 -8 -32 3 -20 14 -19 15 12 15 91 2 100 6 102 43 2 50 -4 60 -34 61 -20 1 -21 2 -6 6 41 9 42 10 35 57 -4 25 -3 49 0 53 4 4 5 28 1 53 -6 43 -8 45 -40 43 -23 -1 -30 2 -23 9 6 6 24 11 39 12 26 1 28 3 24 41 -4 52 -7 55 -42 55 -19 0 -28 4 -24 11 4 5 21 9 38 7 29 -3 32 -1 31 27 -2 38 -3 93 -4 170 -1 33 -5 64 -10 69 -6 6 -4 14 4 20 10 8 12 25 7 61 -7 57 -17 62 -116 64 -49 1 -56 4 -41 13 18 10 104 6 137 -7 22 -8 28 10 20 65 -6 42 -8 45 -41 51 -40 6 -22 21 20 17 15 -2 25 2 24 10 -1 6 -2 25 -2 41 -2 29 -3 30 -53 27 -28 -1 -53 2 -55 6 -8 12 -48 10 -62 -4 -8 -8 -15 -8 -24 -1 -17 13 -195 16 -203 3 -4 -7 -13 -7 -25 0 -10 5 -33 10 -50 10 -18 0 -29 4 -25 10 8 14 41 13 64 -2 15 -9 25 -9 46 0 28 13 78 16 88 5 13 -12 276 -11 291 1 9 7 12 24 9 49 -5 34 -8 38 -29 33 -12 -3 -25 -2 -28 3 -3 5 10 12 28 15 33 6 34 8 29 44 -8 60 -9 61 -70 65 l-58 4 60 0 c63 0 65 1 65 33 0 16 -7 20 -36 20 -23 0 -33 4 -28 11 3 6 19 9 34 5 26 -5 28 -2 32 32 3 20 1 52 -3 71 -4 19 -4 42 0 50 5 9 6 33 4 54 -5 36 -7 37 -45 37 -23 0 -37 4 -33 10 3 6 24 10 47 10 32 0 39 3 34 16 -3 9 -6 32 -6 51 0 31 -2 35 -22 30 -13 -3 -32 -1 -43 3 -15 7 -10 9 22 9 47 1 63 14 36 30 -17 10 -17 10 1 11 14 0 17 5 12 23 -3 12 -6 26 -6 30 0 5 -8 6 -18 2 -34 -10 -172 -14 -177 -4 -4 5 -16 10 -28 10 -18 1 -18 2 -4 6 10 3 24 -1 32 -7 8 -6 22 -9 32 -6 10 3 46 7 78 7 61 1 95 12 95 29 0 6 -7 10 -15 10 -19 0 -19 10 1 24 16 12 10 46 -9 46 -6 0 -3 6 7 13 22 16 11 47 -18 48 -21 0 -21 0 2 11 12 6 23 20 23 32 3 48 -4 111 -13 115 -5 1 -3 8 5 15 10 7 13 24 10 54 -5 40 -6 42 -40 42 -20 0 -32 4 -28 10 3 6 19 10 34 10 33 0 45 27 30 67 -7 18 -14 23 -29 18 -11 -3 -28 -1 -37 5 -16 10 -16 10 3 5 12 -3 32 -1 45 4 22 8 24 13 22 77 -1 38 -2 72 -2 76 -1 3 -20 4 -43 1 -26 -4 -39 -2 -35 4 4 6 17 8 29 6 27 -5 64 19 54 35 -4 7 -24 12 -44 12 -27 0 -33 3 -22 10 8 5 25 7 36 4 28 -7 37 8 24 41 -7 18 -15 25 -25 21 -8 -3 -25 -1 -37 4 -26 10 -18 13 28 10 26 -1 32 3 36 23 3 14 3 39 0 56 -3 24 -9 31 -26 31 -11 0 -28 5 -36 10 -11 8 -9 9 10 5 50 -11 53 0 51 171 -1 87 -5 162 -7 166 -3 5 -1 14 4 21 14 17 9 56 -8 67 -9 6 -689 10 -1787 10 l-1772 0 -16 -22z"
       id="path10"
       inkscape:export-xdpi="89.986061"
       inkscape:export-ydpi="89.986061" />
    <path
       d="M13420 17044 c-25 -14 -106 -58 -180 -97 -74 -39 -155 -82 -180 -96 -25 -15 -62 -35 -82 -46 -21 -11 -38 -22 -38 -25 0 -8 102 -57 134 -65 16 -3 47 -21 68 -40 22 -18 50 -36 63 -39 14 -4 41 -18 62 -31 30 -21 44 -25 79 -19 26 4 44 2 48 -5 5 -7 -4 -11 -26 -11 -30 0 -27 -4 47 -44 65 -36 96 -47 165 -57 47 -6 116 -17 155 -24 38 -8 74 -10 80 -6 5 4 19 11 30 14 19 7 19 6 2 -7 -18 -14 -18 -14 0 -20 24 -7 200 -38 238 -42 17 -2 61 -10 98 -18 38 -9 87 -16 110 -17 23 -1 64 -8 91 -15 27 -8 67 -14 88 -14 22 0 48 -5 59 -11 11 -5 30 -9 42 -6 22 3 22 4 -3 15 -23 11 -22 12 10 6 19 -4 49 -8 67 -8 18 -1 34 -4 37 -7 3 -3 -11 -5 -32 -4 -61 3 -60 -8 4 -21 73 -16 94 -17 94 -5 0 5 -8 12 -17 14 -16 4 -16 5 -1 6 9 0 20 -3 23 -9 3 -5 23 -10 43 -10 25 0 32 -3 23 -9 -20 -13 3 -23 48 -20 22 2 45 -2 53 -8 7 -6 58 -16 113 -22 55 -7 114 -17 132 -22 60 -18 208 -39 241 -33 18 4 32 2 32 -4 0 -5 15 -12 33 -15 17 -2 81 -14 141 -26 61 -11 128 -21 150 -21 23 0 59 -7 81 -15 48 -17 68 -19 60 -5 -8 13 36 13 55 -1 11 -8 9 -9 -10 -4 -18 5 -22 4 -15 -4 6 -5 137 -32 293 -58 232 -39 286 -45 302 -35 11 6 24 12 29 12 4 0 30 12 57 27 l48 27 -27 9 c-15 5 -27 13 -27 18 0 5 16 3 36 -6 31 -13 39 -13 64 0 16 8 31 19 34 24 6 9 -49 21 -98 21 -23 0 -27 3 -18 12 9 9 27 8 79 -5 62 -15 69 -15 92 0 24 16 24 17 6 25 -14 6 -11 7 13 3 23 -3 45 2 70 16 20 11 64 35 96 52 33 18 61 37 63 43 2 5 -56 41 -129 78 -73 38 -144 76 -158 86 -14 9 -77 42 -140 73 l-115 57 -270 46 c-148 26 -306 52 -350 60 -83 13 -262 44 -550 95 -93 17 -314 55 -490 85 -356 61 -402 69 -660 114 -99 17 -229 40 -290 50 -60 10 -175 30 -255 44 -80 14 -152 26 -160 26 -8 0 -35 -12 -60 -26z"
       id="path12"
       inkscape:export-xdpi="89.986061"
       inkscape:export-ydpi="89.986061" />
    <path
       d="M13371 15854 c-46 -24 -89 -48 -95 -53 -6 -4 -67 -38 -136 -73 -124 -65 -200 -107 -200 -113 0 -11 90 -48 115 -47 19 1 25 -2 16 -7 -17 -11 2 -23 22 -15 10 3 22 -4 32 -19 18 -28 68 -53 84 -42 6 3 16 3 22 -1 8 -5 8 -9 -1 -14 -7 -4 14 -20 54 -41 58 -30 68 -32 95 -22 17 6 33 8 36 3 3 -4 -5 -10 -16 -13 -12 -3 -18 -10 -14 -16 8 -14 75 -48 106 -55 105 -24 131 -27 144 -16 11 9 20 7 41 -9 28 -22 54 -28 54 -11 0 6 5 10 10 10 6 0 10 -6 10 -13 0 -14 188 -51 212 -42 8 3 31 -1 51 -10 20 -8 49 -15 64 -15 15 0 57 -6 93 -14 144 -32 296 -56 319 -50 16 5 22 3 18 -3 -7 -11 203 -47 239 -42 10 2 28 -2 39 -7 19 -10 61 -19 235 -48 44 -8 82 -10 92 -5 9 5 27 9 40 8 13 0 17 -3 11 -6 -28 -11 -10 -21 55 -32 37 -7 103 -19 147 -27 44 -8 141 -24 215 -35 74 -11 161 -24 192 -29 32 -4 61 -11 66 -14 10 -6 182 -34 256 -42 28 -3 68 -10 89 -15 20 -5 42 -7 48 -3 6 4 14 1 18 -5 4 -7 39 -17 76 -22 59 -10 73 -9 98 6 15 9 31 15 33 12 3 -3 -4 -8 -15 -12 -30 -9 -26 -22 10 -29 49 -9 86 -7 101 7 7 6 26 19 41 27 16 8 24 16 18 18 -21 7 0 22 32 22 18 0 50 11 72 25 22 13 76 43 120 65 125 63 210 111 213 119 1 5 -64 44 -145 88 -81 44 -188 102 -238 129 -133 72 -132 72 -375 114 -124 21 -265 46 -315 55 -49 9 -232 40 -405 70 -173 30 -380 66 -460 80 -80 14 -289 50 -465 80 -176 30 -385 66 -465 80 -422 75 -668 115 -695 114 -16 0 -68 -20 -114 -45z"
       id="path14" />
    <path
       d="M13430 14720 c-75 -42 -300 -162 -392 -210 -98 -50 -114 -66 -80 -76 31 -11 181 -90 197 -105 5 -5 24 -9 41 -9 21 0 38 -7 47 -20 7 -11 49 -38 93 -61 43 -23 83 -45 87 -49 5 -4 26 -6 47 -3 24 3 40 1 45 -7 6 -10 -1 -11 -31 -6 -30 6 -36 5 -27 -4 6 -7 65 -20 131 -29 66 -9 124 -19 128 -24 11 -11 83 -8 106 4 14 8 23 8 31 0 8 -8 4 -11 -13 -11 -19 0 -22 -2 -10 -9 15 -10 89 -22 215 -35 11 -1 36 -7 55 -13 19 -7 73 -17 120 -23 46 -7 88 -14 92 -16 3 -2 10 0 13 6 5 8 15 6 31 -4 13 -9 54 -20 91 -26 70 -10 176 -29 323 -57 47 -9 108 -17 137 -17 28 -1 49 -5 46 -10 -3 -5 6 -7 22 -4 15 3 39 -1 54 -8 14 -8 38 -12 52 -9 15 4 55 -3 90 -14 35 -11 89 -23 119 -26 61 -6 186 -29 210 -39 8 -3 35 -8 60 -10 25 -3 121 -18 214 -34 93 -17 175 -28 183 -25 7 3 20 0 28 -7 10 -9 32 -11 65 -7 36 4 54 2 64 -8 19 -20 62 -29 71 -15 5 8 11 7 23 -3 16 -13 117 -34 202 -43 19 -2 52 -6 73 -10 29 -5 49 0 92 21 55 26 66 40 43 48 -7 2 10 7 38 10 28 4 59 14 70 22 18 14 18 14 -4 15 -13 0 -20 4 -17 10 3 6 24 10 46 10 47 0 180 67 159 80 -9 5 -9 9 -1 14 6 4 16 4 22 0 6 -3 23 -1 37 6 95 43 97 48 40 78 -49 24 -194 102 -343 183 -138 75 -136 75 -365 113 -113 20 -243 42 -290 50 -47 8 -191 33 -320 55 -129 23 -300 52 -380 66 -80 15 -302 53 -495 86 -192 32 -424 72 -515 89 -91 16 -262 45 -380 65 -118 20 -258 45 -312 56 -118 23 -134 23 -178 -1z"
       id="path16" />
    <path
       d="M13430 13555 c-27 -16 -92 -50 -257 -137 -161 -86 -215 -116 -226 -127 -12 -12 127 -83 147 -75 8 3 19 -4 26 -16 6 -11 41 -36 78 -55 124 -62 206 -106 217 -115 6 -5 27 -8 46 -6 19 2 26 1 16 -1 -30 -7 -13 -27 29 -35 264 -47 397 -68 435 -68 26 0 63 -7 82 -15 20 -8 44 -15 53 -15 14 0 15 2 3 17 -12 15 -12 16 1 8 8 -4 22 -14 30 -20 21 -18 80 -29 80 -16 0 15 27 14 37 -2 4 -7 47 -21 95 -30 101 -20 120 -21 98 -7 -11 7 -6 10 20 9 19 0 29 -3 23 -6 -27 -11 -10 -20 55 -30 37 -6 81 -12 99 -12 18 -1 44 -6 58 -11 35 -13 48 -13 39 2 -5 8 4 9 32 5 21 -4 45 -7 53 -7 8 0 11 -6 7 -15 -4 -11 2 -15 20 -15 14 0 22 4 19 10 -3 6 4 10 17 9 13 0 17 -3 11 -6 -28 -11 -12 -25 22 -20 21 3 35 2 35 -4 0 -6 10 -9 23 -8 12 2 38 -2 57 -9 19 -7 60 -11 90 -9 37 1 54 -2 53 -10 -2 -10 50 -22 127 -28 14 -1 45 -8 69 -14 23 -7 49 -10 57 -7 14 5 135 -17 153 -28 5 -4 34 -9 63 -12 72 -7 89 -10 193 -32 50 -10 119 -24 155 -31 36 -7 76 -15 90 -17 25 -5 25 -5 5 11 -21 18 -20 18 35 -7 32 -15 188 -46 347 -69 57 -8 67 -7 128 21 37 17 64 34 60 40 -3 5 -1 11 4 11 6 1 16 3 21 4 6 1 17 3 25 4 8 0 32 17 54 36 21 19 48 35 60 35 12 0 49 14 82 31 45 24 57 34 47 41 -10 8 -9 9 3 5 22 -7 121 41 116 56 -3 11 -64 46 -237 136 -41 21 -104 55 -140 75 -127 71 -152 79 -345 112 -260 44 -701 120 -810 139 -209 36 -390 68 -550 95 -93 16 -262 45 -375 65 -113 19 -297 51 -410 71 -113 19 -257 44 -320 55 -379 67 -388 68 -430 44z"
       id="path18" />
    <path
       d="M13350 12347 c-69 -34 -127 -65 -130 -69 -3 -4 -21 -14 -40 -23 -72 -34 -235 -124 -237 -132 -2 -4 41 -30 95 -57 53 -27 140 -74 192 -104 88 -51 98 -54 147 -50 53 5 53 5 28 -12 l-26 -17 33 -13 c18 -7 40 -19 48 -25 8 -7 31 -15 50 -18 19 -4 68 -13 109 -22 40 -8 77 -12 82 -10 4 3 10 1 14 -5 8 -13 45 -13 45 1 0 6 7 3 16 -6 10 -9 26 -14 36 -12 11 3 38 -1 61 -8 60 -20 431 -82 452 -75 6 1 21 5 35 7 19 3 21 2 11 -5 -23 -16 62 -36 90 -22 16 9 24 8 39 -5 10 -9 38 -18 62 -20 34 -3 37 -3 13 3 -24 6 -27 9 -12 14 21 9 45 1 72 -23 13 -12 64 -24 155 -39 74 -11 171 -28 214 -36 43 -8 91 -14 105 -13 14 1 51 -5 81 -14 74 -21 189 -41 197 -33 4 3 1 6 -5 6 -7 0 -12 4 -12 8 0 5 13 7 29 4 20 -3 28 -8 24 -18 -6 -17 15 -18 53 -4 19 8 30 8 38 0 7 -7 2 -10 -15 -10 -50 -1 6 -18 91 -28 47 -6 136 -20 199 -31 63 -12 121 -21 130 -20 9 1 42 -6 74 -15 33 -10 71 -16 85 -13 15 3 39 -1 53 -9 32 -16 75 -20 107 -10 15 5 29 3 40 -6 20 -18 107 -37 191 -44 48 -3 70 0 101 16 22 11 40 25 40 30 0 6 6 10 14 10 18 0 201 95 243 126 17 13 35 24 39 24 19 0 144 64 144 74 0 10 -34 30 -218 126 -26 14 -68 37 -92 51 -117 69 -228 118 -290 127 -36 6 -130 22 -210 36 -80 14 -224 39 -320 55 -96 17 -317 55 -490 85 -173 30 -371 64 -440 76 -142 24 -361 62 -530 91 -63 11 -151 27 -195 34 -44 8 -161 28 -260 45 -99 17 -207 36 -240 41 -33 5 -106 19 -163 29 -57 11 -108 20 -115 20 -7 0 -68 -28 -137 -63z"
       id="path20" />
    <path
       d="M13420 11218 c-19 -11 -96 -52 -170 -91 -121 -63 -288 -154 -299 -163 -8 -7 32 -44 48 -44 9 0 26 -6 37 -14 11 -8 33 -16 49 -18 17 -2 30 -9 30 -16 0 -8 15 -22 34 -32 31 -15 38 -16 68 -4 18 8 33 10 33 5 0 -5 -9 -13 -20 -16 -23 -7 -17 -25 9 -25 9 0 27 -9 40 -21 12 -12 61 -41 108 -66 66 -35 91 -43 114 -38 22 5 29 3 29 -9 0 -9 7 -16 15 -16 8 0 15 5 15 10 0 6 11 5 28 -4 34 -18 206 -50 230 -43 9 3 26 8 37 12 16 6 17 5 5 -4 -28 -20 8 -33 100 -35 14 -1 30 -4 35 -7 10 -7 108 -27 135 -28 8 0 49 -7 90 -15 160 -31 252 -46 260 -41 5 3 21 0 37 -6 15 -6 53 -15 83 -19 30 -4 93 -15 140 -24 55 -10 88 -12 94 -6 6 6 19 10 31 9 20 0 20 0 0 -9 -18 -7 -19 -8 -2 -15 9 -4 28 -4 42 -1 14 4 25 3 25 -2 0 -19 335 -72 503 -81 16 0 26 -5 22 -10 -7 -12 74 -25 114 -19 17 2 28 1 25 -4 -10 -16 45 -19 73 -4 17 8 40 12 51 9 36 -9 25 -22 -13 -16 -21 3 -35 1 -35 -4 0 -16 54 -23 119 -17 36 4 65 2 77 -5 16 -9 13 -10 -16 -5 -24 5 -32 3 -25 -4 6 -5 89 -22 185 -36 96 -15 218 -36 270 -47 109 -22 113 -22 105 -9 -4 6 7 10 24 10 31 0 42 -14 19 -23 -7 -2 5 -7 27 -11 26 -5 41 -4 43 3 2 6 9 11 15 11 32 0 87 22 81 32 -4 7 -3 8 4 4 6 -4 22 -2 34 5 22 12 22 12 3 21 -16 6 -13 7 10 4 39 -5 140 43 111 54 -25 8 -12 16 39 24 22 4 47 11 55 16 13 9 13 11 0 20 -9 6 -10 10 -3 10 6 0 14 -4 17 -9 8 -12 67 10 63 24 -2 5 -13 11 -25 13 -12 2 -22 8 -22 13 0 12 6 11 40 -6 28 -14 33 -14 81 10 27 14 49 31 46 38 -2 7 -53 38 -113 70 -60 32 -165 88 -234 124 -69 37 -136 72 -150 79 -30 15 -129 34 -605 114 -198 34 -445 77 -550 96 -104 19 -219 39 -255 44 -36 6 -155 26 -265 45 -110 19 -346 60 -525 90 -390 67 -512 88 -688 120 -163 30 -197 31 -242 3z"
       id="path22" />
    <path
       d="M13373 10029 c-54 -28 -102 -55 -108 -59 -5 -5 -73 -41 -150 -80 -77 -40 -148 -80 -158 -89 -16 -16 -14 -19 55 -51 40 -19 80 -40 90 -48 37 -31 232 -122 260 -122 22 0 29 -4 25 -14 -5 -13 33 -36 108 -68 26 -11 209 -41 260 -42 22 -1 45 -4 50 -8 16 -9 107 -26 140 -25 17 0 55 -8 85 -17 30 -9 105 -19 167 -22 65 -4 111 -11 110 -17 -2 -8 93 -35 132 -36 11 -1 11 2 0 16 -13 15 -12 15 18 0 18 -10 55 -17 82 -17 31 0 53 -5 58 -13 10 -17 84 -30 183 -33 84 -2 128 -11 148 -31 7 -7 25 -13 40 -13 21 0 24 2 12 10 -30 19 10 10 42 -10 34 -20 99 -30 68 -10 -30 19 29 11 75 -11 30 -14 51 -18 67 -13 29 10 49 6 63 -11 11 -15 223 -54 323 -60 36 -2 70 -9 75 -14 14 -14 54 -14 62 -1 3 6 18 9 33 9 21 -1 22 -2 7 -6 -44 -11 -31 -20 45 -32 45 -8 84 -11 87 -7 3 3 13 0 21 -7 8 -6 46 -13 84 -13 88 -2 90 -2 83 -14 -3 -5 -2 -10 2 -10 5 0 71 -11 148 -24 114 -20 157 -23 232 -18 81 6 95 10 120 34 15 14 48 34 73 43 88 33 108 48 78 58 -7 2 -2 2 12 0 29 -6 270 114 270 134 0 7 -19 21 -42 32 -24 11 -77 38 -118 61 -41 23 -127 69 -190 102 -63 33 -119 63 -125 67 -29 20 -93 34 -425 90 -96 17 -229 39 -295 51 -66 11 -196 34 -290 50 -209 36 -531 92 -725 126 -80 14 -248 43 -375 64 -126 22 -279 48 -340 59 -60 10 -191 33 -290 50 -99 17 -217 38 -262 46 -45 8 -86 15 -92 15 -5 0 -54 -23 -108 -51z"
       id="path24" />
    <path
       d="M13410 8885 c-25 -15 -74 -42 -110 -61 -299 -158 -345 -184 -345 -197 0 -20 213 -129 237 -122 9 4 26 1 35 -5 16 -10 15 -10 -4 -5 -35 10 -27 -11 10 -26 17 -7 44 -23 59 -35 15 -12 44 -28 65 -34 21 -7 45 -18 53 -25 38 -32 88 -48 147 -49 35 -1 55 -4 45 -8 -9 -4 12 -6 48 -3 45 3 54 2 30 -4 l-35 -7 40 -9 c22 -5 70 -9 107 -9 36 -1 66 -5 65 -10 -2 -9 200 -48 218 -42 6 2 17 0 26 -5 9 -4 40 -10 70 -13 30 -2 61 -6 69 -9 60 -20 239 -51 247 -43 3 2 23 -2 46 -10 22 -8 49 -12 60 -8 10 3 51 -4 90 -17 51 -16 72 -19 75 -11 4 13 32 17 32 4 0 -14 92 -34 104 -22 14 14 29 13 23 -3 -3 -9 30 -19 127 -37 72 -13 156 -24 186 -26 31 -2 69 -8 85 -14 16 -6 63 -13 104 -16 41 -3 80 -9 86 -14 6 -5 64 -18 130 -30 66 -11 155 -28 198 -36 43 -8 86 -13 96 -9 10 3 33 -1 52 -9 22 -9 52 -12 88 -8 38 3 52 2 47 -6 -8 -13 57 -33 105 -31 19 0 61 -6 94 -15 33 -9 69 -16 80 -16 l20 1 -20 16 c-18 14 -18 15 -2 9 10 -3 23 -6 28 -6 5 0 9 -6 9 -14 0 -9 17 -16 45 -20 50 -8 82 2 49 15 -14 6 -10 8 16 7 33 -1 117 38 106 49 -3 3 -15 -2 -28 -11 -25 -18 -54 -21 -63 -6 -3 6 1 7 9 4 8 -3 30 1 47 10 18 9 43 16 56 16 28 0 57 14 96 46 16 13 39 24 52 24 12 0 28 6 34 14 10 12 6 15 -26 18 -31 3 -34 5 -19 13 12 5 31 4 50 -3 26 -10 33 -10 42 3 6 8 16 15 22 15 18 0 127 61 127 72 0 10 -96 64 -380 213 l-140 74 -265 46 c-146 26 -317 55 -380 65 -63 10 -178 30 -255 44 -151 27 -383 67 -670 116 -350 60 -1052 182 -1235 215 -219 40 -256 41 -310 10z"
       id="path26" />
    <path
       d="M13355 7689 c-60 -33 -157 -86 -215 -116 -145 -77 -190 -103 -190 -114 0 -18 119 -70 145 -63 15 4 25 2 25 -5 0 -6 -5 -11 -11 -11 -15 0 45 -40 93 -63 20 -9 38 -17 41 -17 3 0 35 -18 73 -40 37 -21 71 -37 75 -35 4 3 9 -2 13 -10 3 -8 21 -21 40 -29 46 -19 267 -60 331 -61 28 0 68 -9 89 -19 22 -10 49 -15 62 -12 12 3 25 2 28 -3 3 -4 20 -11 38 -14 309 -54 343 -58 365 -48 29 13 43 14 23 1 -25 -16 -1 -25 71 -26 39 -1 76 -7 82 -13 6 -6 32 -11 57 -11 25 0 50 -4 55 -9 9 -8 194 -41 330 -58 36 -5 38 -4 26 11 -12 14 -10 16 23 16 41 0 114 33 123 56 3 8 12 13 20 10 7 -3 16 1 19 9 4 8 15 15 25 15 26 0 90 33 112 58 11 11 24 19 31 16 7 -3 21 4 31 16 10 11 26 20 36 20 22 0 34 16 17 23 -7 3 2 6 20 6 36 1 92 26 92 41 0 6 3 9 8 8 16 -4 52 14 52 27 0 8 6 12 14 9 8 -3 28 2 46 11 26 13 29 19 19 31 -10 12 -7 13 19 8 20 -4 40 0 61 12 54 32 61 28 -164 69 -77 13 -169 29 -205 34 -112 17 -471 80 -488 85 -9 3 -60 12 -112 20 -88 14 -279 46 -735 126 -99 17 -234 40 -300 51 -66 11 -152 26 -192 34 -40 8 -80 15 -90 15 -10 -1 -67 -28 -128 -61z"
       id="path28"
       inkscape:export-xdpi="89.986061"
       inkscape:export-ydpi="89.986061" />
    <path
       d="M13405 6550 c-27 -16 -72 -40 -100 -54 -57 -29 -211 -111 -303 -163 -35 -19 -60 -39 -55 -43 15 -15 264 -140 278 -140 8 0 18 -6 22 -13 12 -20 78 -57 101 -57 11 0 35 -12 52 -27 18 -14 40 -27 49 -28 9 0 21 -4 27 -8 7 -4 28 4 48 18 20 14 38 25 40 25 4 0 90 52 133 80 16 11 19 17 11 27 -8 10 -4 13 19 13 31 0 133 46 133 60 0 5 -8 11 -17 13 -10 2 -4 3 13 2 23 -3 47 7 88 35 32 22 51 40 44 43 -7 3 -2 6 12 6 39 2 106 44 102 65 -2 12 1 15 8 11 17 -10 90 15 90 31 0 7 -22 17 -52 23 -272 52 -629 111 -666 111 -15 0 -49 -14 -77 -30z"
       id="path30"
       inkscape:export-xdpi="89.986061"
       inkscape:export-ydpi="89.986061" />
  </g>
</svg>
